<svg width="16" height="17" viewBox="0 0 16 17" fill="none" xmlns="http://www.w3.org/2000/svg">
<path d="M7.15655 13.2468H4.33388V16.3882H7.24761C8.44648 16.3882 9.55431 16.1909 10.5711 15.7963C11.603 15.4018 12.4984 14.8478 13.2572 14.1346C14.016 13.4213 14.6002 12.5715 15.01 11.5851C15.4349 10.5987 15.6473 9.52118 15.6473 8.35265C15.6473 7.16895 15.4349 6.09148 15.01 5.12024C14.6002 4.13382 14.0084 3.28398 13.2344 2.57072C12.4756 1.84229 11.5803 1.28838 10.5483 0.90899C9.53155 0.514422 8.41613 0.317139 7.20208 0.317139H0.76001V6.42914H4.33388L4.33388 3.43574H7.15655C8.1278 3.43574 8.97004 3.63302 9.6833 4.02759C10.4117 4.42216 10.9732 4.98366 11.3678 5.71209C11.7775 6.44052 11.9824 7.31312 11.9824 8.32989C11.9824 9.34666 11.7851 10.2268 11.3906 10.9705C10.996 11.7141 10.4345 12.2832 9.70606 12.6777C8.97763 13.0571 8.1278 13.2468 7.15655 13.2468Z" fill="white"/>
<path d="M7.15655 13.2468H4.33388V16.3882H7.24761C8.44648 16.3882 9.55431 16.1909 10.5711 15.7963C11.603 15.4018 12.4984 14.8478 13.2572 14.1346C14.016 13.4213 14.6002 12.5715 15.01 11.5851C15.4349 10.5987 15.6473 9.52118 15.6473 8.35265C15.6473 7.16895 15.4349 6.09148 15.01 5.12024C14.6002 4.13382 14.0084 3.28398 13.2344 2.57072C12.4756 1.84229 11.5803 1.28838 10.5483 0.90899C9.53155 0.514422 8.41613 0.317139 7.20208 0.317139H0.76001V6.42914H4.33388L4.33388 3.43574H7.15655C8.1278 3.43574 8.97004 3.63302 9.6833 4.02759C10.4117 4.42216 10.9732 4.98366 11.3678 5.71209C11.7775 6.44052 11.9824 7.31312 11.9824 8.32989C11.9824 9.34666 11.7851 10.2268 11.3906 10.9705C10.996 11.7141 10.4345 12.2832 9.70606 12.6777C8.97763 13.0571 8.1278 13.2468 7.15655 13.2468Z" fill="url(#paint0_linear_42_904)"/>
<path d="M4.33388 7.56731H0.777082L2.48434 11.6932L4.33388 7.56731Z" fill="white"/>
<path d="M4.33388 7.56731H0.777082L2.48434 11.6932L4.33388 7.56731Z" fill="url(#paint1_linear_42_904)"/>
<defs>
<linearGradient id="paint0_linear_42_904" x1="-10.5673" y1="2.22029" x2="13.0851" y2="22.2055" gradientUnits="userSpaceOnUse">
<stop offset="0.115933" stop-color="#FB0EC9"/>
<stop offset="0.337661" stop-color="#BE3554"/>
<stop offset="0.587105" stop-color="#6D5DD7"/>
<stop offset="0.75736" stop-color="#25DF90"/>
</linearGradient>
<linearGradient id="paint1_linear_42_904" x1="-10.5673" y1="2.22029" x2="13.0851" y2="22.2055" gradientUnits="userSpaceOnUse">
<stop offset="0.115933" stop-color="#FB0EC9"/>
<stop offset="0.337661" stop-color="#BE3554"/>
<stop offset="0.587105" stop-color="#6D5DD7"/>
<stop offset="0.75736" stop-color="#25DF90"/>
</linearGradient>
</defs>
</svg>
