<svg width="53" height="57" viewBox="0 0 53 57" fill="none" xmlns="http://www.w3.org/2000/svg">
<path d="M22.48 45.44H12.56V56.48H22.8C27.0133 56.48 30.9067 55.7867 34.48 54.4C38.1067 53.0133 41.2533 51.0667 43.92 48.56C46.5867 46.0533 48.64 43.0667 50.08 39.6C51.5733 36.1333 52.32 32.3467 52.32 28.24C52.32 24.08 51.5733 20.2933 50.08 16.88C48.64 13.4133 46.56 10.4267 43.84 7.92001C41.1733 5.36001 38.0267 3.41334 34.4 2.08001C30.8267 0.693341 26.9067 7.62939e-06 22.64 7.62939e-06H0V21.48H12.56L12.56 10.96H22.48C25.8933 10.96 28.8533 11.6533 31.36 13.04C33.92 14.4267 35.8933 16.4 37.28 18.96C38.72 21.52 39.44 24.5867 39.44 28.16C39.44 31.7333 38.7467 34.8267 37.36 37.44C35.9733 40.0533 34 42.0533 31.44 43.44C28.88 44.7733 25.8933 45.44 22.48 45.44Z" fill="white"/>
<path d="M22.48 45.44H12.56V56.48H22.8C27.0133 56.48 30.9067 55.7867 34.48 54.4C38.1067 53.0133 41.2533 51.0667 43.92 48.56C46.5867 46.0533 48.64 43.0667 50.08 39.6C51.5733 36.1333 52.32 32.3467 52.32 28.24C52.32 24.08 51.5733 20.2933 50.08 16.88C48.64 13.4133 46.56 10.4267 43.84 7.92001C41.1733 5.36001 38.0267 3.41334 34.4 2.08001C30.8267 0.693341 26.9067 7.62939e-06 22.64 7.62939e-06H0V21.48H12.56L12.56 10.96H22.48C25.8933 10.96 28.8533 11.6533 31.36 13.04C33.92 14.4267 35.8933 16.4 37.28 18.96C38.72 21.52 39.44 24.5867 39.44 28.16C39.44 31.7333 38.7467 34.8267 37.36 37.44C35.9733 40.0533 34 42.0533 31.44 43.44C28.88 44.7733 25.8933 45.44 22.48 45.44Z" fill="url(#paint0_linear_2_13)"/>
<path d="M12.56 25.48H0.0599997L6.06 39.98L12.56 25.48Z" fill="white"/>
<path d="M12.56 25.48H0.0599997L6.06 39.98L12.56 25.48Z" fill="url(#paint1_linear_2_13)"/>
<defs>
<linearGradient id="paint0_linear_2_13" x1="-39.8087" y1="6.68843" x2="43.3152" y2="76.9244" gradientUnits="userSpaceOnUse">
<stop offset="0.115933" stop-color="#FB0EC9"/>
<stop offset="0.337661" stop-color="#BE3554"/>
<stop offset="0.587105" stop-color="#6D5DD7"/>
<stop offset="0.75736" stop-color="#25DF90"/>
</linearGradient>
<linearGradient id="paint1_linear_2_13" x1="-39.8087" y1="6.68843" x2="43.3152" y2="76.9244" gradientUnits="userSpaceOnUse">
<stop offset="0.115933" stop-color="#FB0EC9"/>
<stop offset="0.337661" stop-color="#BE3554"/>
<stop offset="0.587105" stop-color="#6D5DD7"/>
<stop offset="0.75736" stop-color="#25DF90"/>
</linearGradient>
</defs>
</svg>
