vector4.svg
vector5.svg
vector2.svg
vector3.svg<svg width="1075" height="264" viewBox="0 0 1075 264" fill="none" xmlns="http://www.w3.org/2000/svg">
<g opacity="0.7" filter="url(#filter0_f_39_1523)">
<path d="M538.378 215.063C502.856 259.849 358.282 204.392 215.464 91.1957C72.6463 -22.0005 -14.334 -150.071 21.1882 -194.857C56.7105 -239.643 201.284 -184.186 344.102 -70.9899C486.92 42.2063 573.9 170.276 538.378 215.063Z" fill="#0041BE"/>
<path d="M814.68 47.0422C829.966 80.0632 761.516 144.226 661.795 190.354C562.073 236.482 468.841 247.107 453.556 214.086C438.271 181.065 506.72 116.902 606.442 70.7743C706.164 24.6465 799.395 14.0212 814.68 47.0422Z" fill="#0041BE"/>
<path d="M683.125 519.312C638.279 702.296 341.964 786.967 21.2863 708.43C-299.392 629.894 -522.998 417.891 -478.152 234.907C-433.307 51.9239 -136.991 -32.7471 183.686 45.7891C504.364 124.325 727.97 336.329 683.125 519.312Z" fill="#00E5E0"/>
<path d="M814.978 226.255C829.842 279.099 766.558 343.113 673.628 369.233C580.698 395.354 493.315 373.69 478.451 320.846C463.587 268.002 526.871 203.988 619.801 177.867C712.73 151.747 800.114 173.41 814.978 226.255Z" fill="#00BCC2"/>
<path d="M623.047 206.235C647.111 231.494 599.927 315.461 517.66 393.78C435.392 472.099 349.194 515.113 325.13 489.854C301.066 464.595 348.25 380.629 430.517 302.309C512.785 223.99 598.984 180.976 623.047 206.235Z" fill="#00FF66"/>
<path d="M705.791 211.573C729.855 236.832 682.671 320.799 600.404 399.118C518.136 477.438 431.938 520.451 407.874 495.193C383.81 469.934 430.994 385.967 513.262 307.648C595.529 229.328 681.728 186.314 705.791 211.573Z" fill="#D6FFEE"/>
<path d="M1136.51 67.1597C1168.61 155.535 1075.85 270.289 929.327 323.471C782.806 376.652 638.005 348.122 605.906 259.746C573.807 171.371 666.564 56.6168 813.086 3.43548C959.607 -49.7458 1104.41 -21.2155 1136.51 67.1597Z" fill="#FF589C"/>
<path d="M1356.59 395.067C1356.59 481.651 1155.85 551.841 908.233 551.841C660.612 551.841 459.876 481.651 459.876 395.067C459.876 308.484 660.612 238.294 908.233 238.294C1155.85 238.294 1356.59 308.484 1356.59 395.067Z" fill="#FFB000"/>
<path d="M1396.34 176.715C1414.34 230.628 1323.98 309.355 1194.51 352.557C1065.04 395.758 945.493 387.075 927.491 333.162C909.488 279.25 999.85 200.523 1129.32 157.321C1258.79 114.119 1378.34 122.802 1396.34 176.715Z" fill="#FFB000"/>
<path d="M1156.72 24.8609C1174.54 44.3709 1141.22 103.789 1082.29 157.576C1023.36 211.362 961.138 239.149 943.318 219.639C925.498 200.129 958.825 140.71 1017.76 86.9238C1076.69 33.1373 1138.9 5.35084 1156.72 24.8609Z" fill="#FF0024"/>
</g>
<defs>
<filter id="filter0_f_39_1523" x="-608.875" y="-335.375" width="2132.5" height="1198.13" filterUnits="userSpaceOnUse" color-interpolation-filters="sRGB">
<feFlood flood-opacity="0" result="BackgroundImageFix"/>
<feBlend mode="normal" in="SourceGraphic" in2="BackgroundImageFix" result="shape"/>
<feGaussianBlur stdDeviation="62.5" result="effect1_foregroundBlur_39_1523"/>
</filter>
</defs>
</svg>
