<svg width="68" height="74" viewBox="0 0 68 74" fill="none" xmlns="http://www.w3.org/2000/svg">
<path d="M29.3996 58.7802H16.5673V73.0613H29.8136C35.2639 73.0613 40.3002 72.1644 44.9226 70.3706C49.6139 68.5769 53.6844 66.0587 57.1339 62.8161C60.5835 59.5736 63.2396 55.7101 65.1024 51.2257C67.0341 46.7413 68 41.8429 68 36.5306C68 31.1494 67.0341 26.251 65.1024 21.8356C63.2396 17.3512 60.549 13.4877 57.0305 10.2451C53.5809 6.93358 49.5105 4.41541 44.8191 2.69064C40.1967 0.896881 35.1259 0 29.6066 0H0.320007V27.7861H16.5673V14.1776H29.3996C33.815 14.1776 37.644 15.0745 40.8866 16.8683C44.1982 18.662 46.7508 21.2147 48.5446 24.5262C50.4073 27.8378 51.3387 31.8048 51.3387 36.4272C51.3387 41.0495 50.4418 45.051 48.6481 48.4316C46.8543 51.8121 44.3017 54.3993 40.9901 56.193C37.6785 57.9178 33.815 58.7802 29.3996 58.7802Z" fill="white"/>
<path d="M29.3996 58.7802H16.5673V73.0613H29.8136C35.2639 73.0613 40.3002 72.1644 44.9226 70.3706C49.6139 68.5769 53.6844 66.0587 57.1339 62.8161C60.5835 59.5736 63.2396 55.7101 65.1024 51.2257C67.0341 46.7413 68 41.8429 68 36.5306C68 31.1494 67.0341 26.251 65.1024 21.8356C63.2396 17.3512 60.549 13.4877 57.0305 10.2451C53.5809 6.93358 49.5105 4.41541 44.8191 2.69064C40.1967 0.896881 35.1259 0 29.6066 0H0.320007V27.7861H16.5673V14.1776H29.3996C33.815 14.1776 37.644 15.0745 40.8866 16.8683C44.1982 18.662 46.7508 21.2147 48.5446 24.5262C50.4073 27.8378 51.3387 31.8048 51.3387 36.4272C51.3387 41.0495 50.4418 45.051 48.6481 48.4316C46.8543 51.8121 44.3017 54.3993 40.9901 56.193C37.6785 57.9178 33.815 58.7802 29.3996 58.7802Z" fill="url(#paint0_linear_2_19)"/>
<path d="M16.5673 32.9604H0.397622L8.15909 51.7172L16.5673 32.9604Z" fill="white"/>
<path d="M16.5673 32.9604H0.397622L8.15909 51.7172L16.5673 32.9604Z" fill="url(#paint1_linear_2_19)"/>
<defs>
<linearGradient id="paint0_linear_2_19" x1="-51.1756" y1="8.65199" x2="56.3516" y2="99.5077" gradientUnits="userSpaceOnUse">
<stop offset="0.115933" stop-color="#FB0EC9"/>
<stop offset="0.337661" stop-color="#BE3554"/>
<stop offset="0.587105" stop-color="#6D5DD7"/>
<stop offset="0.75736" stop-color="#25DF90"/>
</linearGradient>
<linearGradient id="paint1_linear_2_19" x1="-51.1756" y1="8.65199" x2="56.3516" y2="99.5077" gradientUnits="userSpaceOnUse">
<stop offset="0.115933" stop-color="#FB0EC9"/>
<stop offset="0.337661" stop-color="#BE3554"/>
<stop offset="0.587105" stop-color="#6D5DD7"/>
<stop offset="0.75736" stop-color="#25DF90"/>
</linearGradient>
</defs>
</svg>
