<svg width="1719" height="828" viewBox="0 0 1719 828" fill="none" xmlns="http://www.w3.org/2000/svg">
<g opacity="0.7" filter="url(#filter0_f_3_74)">
<path d="M860.604 500.7C803.769 572.358 572.452 483.627 343.943 302.513C115.434 121.399 -23.7345 -83.5129 33.1011 -155.171C89.9367 -226.829 321.254 -138.098 549.763 43.0162C778.271 224.13 917.44 429.042 860.604 500.7Z" fill="#0041BE"/>
<path d="M1302.69 231.867C1327.14 284.701 1217.63 387.362 1058.07 461.166C898.516 534.971 749.346 551.971 724.89 499.137C700.433 446.304 809.952 343.643 969.507 269.839C1129.06 196.034 1278.23 179.034 1302.69 231.867Z" fill="#0041BE"/>
<path d="M1092.2 987.5C1020.45 1280.27 546.343 1415.75 33.2581 1290.09C-479.826 1164.43 -837.596 825.225 -765.844 532.451C-694.091 239.678 -219.986 104.205 293.098 229.863C806.183 355.521 1163.95 694.726 1092.2 987.5Z" fill="#00E5E0"/>
<path d="M1303.17 518.608C1326.95 603.158 1225.69 705.58 1077 747.373C928.318 789.167 788.503 754.505 764.721 669.954C740.938 585.403 842.194 482.981 990.881 441.188C1139.57 399.395 1279.38 434.057 1303.17 518.608Z" fill="#00BCC2"/>
<path d="M996.076 486.576C1034.58 526.99 959.084 661.337 827.455 786.648C695.827 911.959 557.91 980.781 519.408 940.367C480.906 899.953 556.4 765.606 688.028 640.295C819.656 514.984 957.574 446.162 996.076 486.576Z" fill="#00FF66"/>
<path d="M1128.47 495.117C1166.97 535.531 1091.47 669.878 959.846 795.189C828.218 920.5 690.3 989.322 651.798 948.908C613.297 908.494 688.79 774.147 820.418 648.836C952.047 523.525 1089.96 454.703 1128.47 495.117Z" fill="#D6FFEE"/>
<path d="M1817.61 264.056C1868.97 405.456 1720.56 589.063 1486.12 674.153C1251.69 759.243 1020.01 713.594 968.65 572.194C917.291 430.794 1065.7 247.187 1300.14 162.097C1534.57 77.0067 1766.25 122.655 1817.61 264.056Z" fill="#FF589C"/>
<path d="M2169.75 788.707C2169.75 927.241 1848.57 1039.55 1452.37 1039.55C1056.18 1039.55 735.001 927.241 735.001 788.707C735.001 650.174 1056.18 537.87 1452.37 537.87C1848.57 537.87 2169.75 650.174 2169.75 788.707Z" fill="#FFB000"/>
<path d="M2233.34 439.344C2262.15 525.605 2117.57 651.568 1910.42 720.691C1703.27 789.813 1511.99 775.92 1483.19 689.66C1454.38 603.399 1598.96 477.436 1806.11 408.313C2013.26 339.191 2204.54 353.084 2233.34 439.344Z" fill="#FFB000"/>
<path d="M1849.96 196.377C1878.47 227.593 1825.15 322.663 1730.86 408.721C1636.57 494.78 1537.02 539.238 1508.51 508.022C1480 476.806 1533.32 381.736 1627.61 295.678C1721.9 209.62 1821.45 165.161 1849.96 196.377Z" fill="#FF0024"/>
</g>
<defs>
<filter id="filter0_f_3_74" x="-975" y="-380" width="3412" height="1917" filterUnits="userSpaceOnUse" color-interpolation-filters="sRGB">
<feFlood flood-opacity="0" result="BackgroundImageFix"/>
<feBlend mode="normal" in="SourceGraphic" in2="BackgroundImageFix" result="shape"/>
<feGaussianBlur stdDeviation="100" result="effect1_foregroundBlur_3_74"/>
</filter>
</defs>
</svg>
