<svg width="16" height="18" viewBox="0 0 16 18" fill="none" xmlns="http://www.w3.org/2000/svg">
<path d="M7.15655 13.8718H4.33388V17.0132H7.24761C8.44648 17.0132 9.55431 16.8159 10.5711 16.4213C11.603 16.0268 12.4984 15.4728 13.2572 14.7596C14.016 14.0463 14.6002 13.1965 15.01 12.2101C15.4349 11.2237 15.6473 10.1462 15.6473 8.97765C15.6473 7.79395 15.4349 6.71648 15.01 5.74524C14.6002 4.75882 14.0084 3.90898 13.2344 3.19572C12.4756 2.46729 11.5803 1.91338 10.5483 1.53399C9.53155 1.13942 8.41613 0.942139 7.20208 0.942139H0.76001V7.05414H4.33388L4.33388 4.06074H7.15655C8.1278 4.06074 8.97004 4.25802 9.6833 4.65259C10.4117 5.04716 10.9732 5.60866 11.3678 6.33709C11.7775 7.06552 11.9824 7.93812 11.9824 8.95489C11.9824 9.97166 11.7851 10.8518 11.3906 11.5955C10.996 12.3391 10.4345 12.9082 9.70606 13.3027C8.97763 13.6821 8.1278 13.8718 7.15655 13.8718Z" fill="white"/>
<path d="M7.15655 13.8718H4.33388V17.0132H7.24761C8.44648 17.0132 9.55431 16.8159 10.5711 16.4213C11.603 16.0268 12.4984 15.4728 13.2572 14.7596C14.016 14.0463 14.6002 13.1965 15.01 12.2101C15.4349 11.2237 15.6473 10.1462 15.6473 8.97765C15.6473 7.79395 15.4349 6.71648 15.01 5.74524C14.6002 4.75882 14.0084 3.90898 13.2344 3.19572C12.4756 2.46729 11.5803 1.91338 10.5483 1.53399C9.53155 1.13942 8.41613 0.942139 7.20208 0.942139H0.76001V7.05414H4.33388L4.33388 4.06074H7.15655C8.1278 4.06074 8.97004 4.25802 9.6833 4.65259C10.4117 5.04716 10.9732 5.60866 11.3678 6.33709C11.7775 7.06552 11.9824 7.93812 11.9824 8.95489C11.9824 9.97166 11.7851 10.8518 11.3906 11.5955C10.996 12.3391 10.4345 12.9082 9.70606 13.3027C8.97763 13.6821 8.1278 13.8718 7.15655 13.8718Z" fill="url(#paint0_linear_42_910)"/>
<path d="M4.33388 8.19231H0.777082L2.48434 12.3182L4.33388 8.19231Z" fill="white"/>
<path d="M4.33388 8.19231H0.777082L2.48434 12.3182L4.33388 8.19231Z" fill="url(#paint1_linear_42_910)"/>
<defs>
<linearGradient id="paint0_linear_42_910" x1="-10.5673" y1="2.84529" x2="13.0851" y2="22.8305" gradientUnits="userSpaceOnUse">
<stop offset="0.115933" stop-color="#FB0EC9"/>
<stop offset="0.337661" stop-color="#BE3554"/>
<stop offset="0.587105" stop-color="#6D5DD7"/>
<stop offset="0.75736" stop-color="#25DF90"/>
</linearGradient>
<linearGradient id="paint1_linear_42_910" x1="-10.5673" y1="2.84529" x2="13.0851" y2="22.8305" gradientUnits="userSpaceOnUse">
<stop offset="0.115933" stop-color="#FB0EC9"/>
<stop offset="0.337661" stop-color="#BE3554"/>
<stop offset="0.587105" stop-color="#6D5DD7"/>
<stop offset="0.75736" stop-color="#25DF90"/>
</linearGradient>
</defs>
</svg>
