<svg width="68" height="74" viewBox="0 0 68 74" fill="none" xmlns="http://www.w3.org/2000/svg">
<path d="M29.3996 59.4895H16.5673V73.7706H29.8136C35.2639 73.7706 40.3002 72.8738 44.9226 71.08C49.6139 69.2862 53.6844 66.7681 57.1339 63.5255C60.5835 60.2829 63.2396 56.4194 65.1024 51.935C67.0341 47.4506 68 42.5523 68 37.24C68 31.8587 67.0341 26.9604 65.1024 22.545C63.2396 18.0606 60.549 14.1971 57.0305 10.9545C53.5809 7.64294 49.5105 5.12478 44.8191 3.40001C40.1967 1.60625 35.1259 0.709366 29.6066 0.709366H0.320007V28.4954H16.5673V14.887H29.3996C33.815 14.887 37.644 15.7839 40.8866 17.5776C44.1982 19.3714 46.7508 21.924 48.5446 25.2356C50.4073 28.5472 51.3387 32.5141 51.3387 37.1365C51.3387 41.7589 50.4418 45.7604 48.6481 49.1409C46.8543 52.5215 44.3017 55.1086 40.9901 56.9024C37.6785 58.6272 33.815 59.4895 29.3996 59.4895Z" fill="white"/>
<path d="M16.5673 33.6697H0.397622L8.15909 52.4266L16.5673 33.6697Z" fill="white"/>
</svg>
